<svg width="64" height="87" viewBox="0 0 64 87" fill="none" xmlns="http://www.w3.org/2000/svg">
<g filter="url(#filter0_d_22_668)">
<path d="M0 80V0H57V79.3939L27.8523 56.3636L0 80Z" fill="#167619"/>
<path d="M17.2007 24.432C17.2007 25.164 17.0327 25.836 16.6967 26.448C16.3607 27.048 15.8447 27.534 15.1487 27.906C14.4527 28.278 13.5887 28.464 12.5567 28.464H10.6487V33H7.57069V20.364H12.5567C13.5647 20.364 14.4167 20.538 15.1127 20.886C15.8087 21.234 16.3307 21.714 16.6787 22.326C17.0267 22.938 17.2007 23.64 17.2007 24.432ZM12.3227 26.016C12.9107 26.016 13.3487 25.878 13.6367 25.602C13.9247 25.326 14.0687 24.936 14.0687 24.432C14.0687 23.928 13.9247 23.538 13.6367 23.262C13.3487 22.986 12.9107 22.848 12.3227 22.848H10.6487V26.016H12.3227ZM27.0691 30.768H22.3531L21.5971 33H18.3751L22.9471 20.364H26.5111L31.0831 33H27.8251L27.0691 30.768ZM26.2771 28.392L24.7111 23.766L23.1631 28.392H26.2771ZM35.9526 20.364V33H32.8746V20.364H35.9526ZM43.3172 20.364C44.6492 20.364 45.8132 20.628 46.8092 21.156C47.8052 21.684 48.5732 22.428 49.1132 23.388C49.6652 24.336 49.9412 25.434 49.9412 26.682C49.9412 27.918 49.6652 29.016 49.1132 29.976C48.5732 30.936 47.7992 31.68 46.7912 32.208C45.7952 32.736 44.6372 33 43.3172 33H38.5832V20.364H43.3172ZM43.1192 30.336C44.2832 30.336 45.1892 30.018 45.8372 29.382C46.4852 28.746 46.8092 27.846 46.8092 26.682C46.8092 25.518 46.4852 24.612 45.8372 23.964C45.1892 23.316 44.2832 22.992 43.1192 22.992H41.6612V30.336H43.1192Z" fill="white"/>
</g>
<defs>
<filter id="filter0_d_22_668" x="0" y="0" width="64" height="87" filterUnits="userSpaceOnUse" color-interpolation-filters="sRGB">
<feFlood flood-opacity="0" result="BackgroundImageFix"/>
<feColorMatrix in="SourceAlpha" type="matrix" values="0 0 0 0 0 0 0 0 0 0 0 0 0 0 0 0 0 0 127 0" result="hardAlpha"/>
<feOffset dx="4" dy="4"/>
<feGaussianBlur stdDeviation="1.5"/>
<feComposite in2="hardAlpha" operator="out"/>
<feColorMatrix type="matrix" values="0 0 0 0 0 0 0 0 0 0 0 0 0 0 0 0 0 0 0.18 0"/>
<feBlend mode="normal" in2="BackgroundImageFix" result="effect1_dropShadow_22_668"/>
<feBlend mode="normal" in="SourceGraphic" in2="effect1_dropShadow_22_668" result="shape"/>
</filter>
</defs>
</svg>
